PathFileType	4	(X/Y/Z)	s01c0103.trc
DataRate	CameraRate	NumFrames	NumMarkers	Units	OrigDataRate	OrigDataStartFrame	OrigNumFrames
200	200	4	48	mm	200	1250	2000
Frame#	Time	racr			lacr			c7			jug			rlel			rdr			llel			ldr			s2			lic			ric			lasi			rasi			rpsi			lpsi			rgt			lgt			rth1			rth2			rth3			rth4			rlfc			rsh1			rsh2			rsh3			rsh4			rlmal			rmmal			rcal			rtoe			rmt5			lth1			lth2			lth4			lth3			llfc			lsh1			lsh2			lsh3			lsh4			llmal			lmmal			lcal			ltoe			lmt5			SBIKE			LBIKE			RBIKE			
		X1	Y1	Z1	X2	Y2	Z2	X3	Y3	Z3	X4	Y4	Z4	X5	Y5	Z5	X6	Y6	Z6	X7	Y7	Z7	X8	Y8	Z8	X9	Y9	Z9	X10	Y10	Z10	X11	Y11	Z11	X12	Y12	Z12	X13	Y13	Z13	X14	Y14	Z14	X15	Y15	Z15	X16	Y16	Z16	X17	Y17	Z17	X18	Y18	Z18	X19	Y19	Z19	X20	Y20	Z20	X21	Y21	Z21	X22	Y22	Z22	X23	Y23	Z23	X24	Y24	Z24	X25	Y25	Z25	X26	Y26	Z26	X27	Y27	Z27	X28	Y28	Z28	X29	Y29	Z29	X30	Y30	Z30	X31	Y31	Z31	X32	Y32	Z32	X33	Y33	Z33	X34	Y34	Z34	X35	Y35	Z35	X36	Y36	Z36	X37	Y37	Z37	X38	Y38	Z38	X39	Y39	Z39	X40	Y40	Z40	X41	Y41	Z41	X42	Y42	Z42	X43	Y43	Z43	X44	Y44	Z44	X45	Y45	Z45	X46	Y46	Z46	X47	Y47	Z47	X48	Y48	Z48	
1250	6.2500	494.795563	1338.413086	-127.219818	512.933228	1294.100098	-423.448578	461.538605	1391.834961	-272.627625	447.911652	1228.053467	-270.488373	566.009949	1074.868896	-27.249868	733.458313	866.677673	-66.854027	558.052673	1034.883789	-535.947937	723.154419	864.389709	-431.455505	0.000000	0.000000	-0.000000	106.905479	1172.958374	-446.897522	85.259819	1187.732056	-117.447372	111.957031	1124.006958	-423.684937	115.410622	1145.257324	-148.803665	-41.015354	1207.271484	-233.469604	-38.329414	1203.022095	-339.441498	51.157181	1089.044922	-82.098717	50.459259	1025.813721	-462.403625	165.176727	1030.841309	-66.432846	247.616394	1014.269897	-63.553631	333.744415	986.935791	-71.175148	261.770782	1064.036865	-86.483368	413.032074	911.554382	-90.958267	327.432892	831.886719	-63.932457	272.161865	767.942078	-70.842079	207.878296	707.217285	-83.627296	309.438934	735.374451	-104.350937	117.724442	625.052917	-105.766533	164.186188	612.305664	-181.920334	70.598602	625.428406	-162.825943	265.253387	436.862915	-137.337128	165.425095	484.792694	-72.921738	101.820015	907.850586	-463.988007	162.351166	842.750732	-459.218323	203.077423	878.802917	-455.553619	212.881653	777.381653	-437.644318	276.435150	671.764404	-420.199280	230.197296	570.468445	-455.325043	224.187714	484.522003	-447.341278	215.565018	399.995728	-433.281067	279.564331	483.503967	-420.022614	203.799988	272.312408	-415.771454	235.349625	301.731934	-329.281219	157.643539	249.922409	-376.264221	430.103271	190.176056	-373.204742	325.543610	178.247620	-442.602264	-224.659821	892.936157	-256.214813	-12.871312	84.362961	-457.917847	-22.490482	81.006432	-57.789768	
1251	6.2550	493.733154	1340.166870	-128.061050	513.711365	1293.673340	-422.284088	461.132568	1392.760620	-272.995636	447.456848	1228.930786	-270.482361	563.761292	1075.426636	-26.760832	733.114197	868.456848	-67.044678	559.550842	1035.537720	-535.686951	723.838257	863.621582	-431.640533	0.000000	0.000000	-0.000000	107.042603	1172.538086	-448.207031	84.693298	1188.925171	-118.879219	112.058212	1123.765259	-425.339844	115.126434	1146.407715	-150.109848	-41.293682	1207.744507	-235.829559	-38.411316	1203.249512	-341.576904	50.731884	1091.527832	-83.512886	49.450371	1025.624023	-463.863678	164.915573	1034.925049	-68.007805	247.501297	1019.490173	-65.295334	334.061890	993.596191	-72.530067	260.976868	1069.397095	-88.340958	415.173767	919.628479	-91.547729	330.763580	839.054871	-64.676849	276.282379	774.403137	-71.705772	212.820328	712.717529	-84.664368	314.171417	742.182556	-104.872902	123.879402	629.474670	-107.213211	170.820740	617.292480	-182.806107	76.699753	628.774170	-164.294052	274.705017	444.036957	-137.072601	173.707962	490.489410	-73.298126	98.926628	907.320312	-465.793091	158.204590	840.871155	-461.507935	199.619202	876.282471	-458.304260	207.459702	774.643494	-439.944336	269.448151	668.261780	-422.711212	222.698090	567.009155	-457.327942	216.434708	481.047943	-448.834351	207.604462	396.688416	-434.424896	272.119843	479.914673	-422.186340	196.301010	269.120300	-416.326324	229.319763	299.486511	-330.028046	150.232788	247.947662	-376.864807	421.579834	183.481857	-373.252472	316.889679	173.298660	-442.861115	-224.781097	892.947083	-256.378662	-12.913972	84.383537	-457.958679	-22.516590	81.013306	-57.827576	
1252	6.2600	492.357666	1341.853638	-128.808243	514.338318	1293.259521	-421.204224	460.722839	1393.671875	-273.340881	446.955475	1229.784790	-270.421173	561.316528	1076.131226	-26.029280	732.602722	870.210815	-67.090294	560.706970	1036.024536	-535.530029	724.962891	863.741455	-431.993256	0.000000	0.000000	-0.000000	107.405312	1172.675659	-449.733887	84.050087	1190.177979	-120.230988	111.881241	1123.673950	-426.854248	114.751007	1147.544800	-151.696411	-41.697815	1208.306885	-237.996704	-38.587391	1203.608765	-343.533356	50.188213	1094.035034	-84.719139	48.360069	1025.658691	-465.204071	164.606400	1038.978394	-69.563446	247.294876	1024.655884	-66.947586	334.030151	1000.160522	-73.769363	260.206970	1074.584961	-90.339333	416.900635	927.682434	-92.148949	334.135529	845.706848	-65.528717	280.670288	780.380310	-72.633217	218.407684	717.650269	-85.792786	319.173950	748.536682	-105.485191	130.514465	633.264404	-108.365486	177.713516	621.576538	-183.618958	83.010292	631.383667	-165.421646	284.597656	450.705597	-136.757339	182.472824	495.495026	-73.910019	96.195023	907.046692	-467.564148	154.199066	839.503845	-463.768982	196.287674	874.201843	-461.054688	202.517166	771.683105	-441.918640	262.989319	665.183533	-425.134094	215.704605	564.194763	-459.198944	208.995209	478.319550	-450.331757	199.855881	393.970612	-435.602722	264.890656	476.918060	-424.170868	188.652237	266.668793	-416.963837	223.148254	297.698975	-330.783325	142.669891	246.652496	-377.437256	412.706482	177.261032	-373.365051	308.024963	168.937317	-443.194794	-224.881485	892.940430	-256.533325	-12.929144	84.305267	-458.039764	-22.526789	81.035583	-57.867779	
1253	6.2650	490.822845	1343.434937	-129.550507	514.810059	1292.879639	-420.254486	460.293243	1394.546387	-273.658630	446.408813	1230.609131	-270.298737	558.763489	1077.044434	-25.373720	731.911621	871.752319	-67.147743	561.531006	1036.411377	-535.465027	724.773315	862.888184	-432.664612	0.000000	0.000000	-0.000000	107.127975	1173.185913	-450.952423	83.490723	1191.462646	-121.425957	111.541573	1123.880737	-428.247101	114.246498	1149.208496	-153.300842	-42.644871	1209.378906	-239.761185	-38.849304	1204.105591	-345.307892	49.682518	1096.488403	-85.809944	47.093529	1025.860962	-466.720398	164.154053	1042.880127	-70.916176	247.012665	1029.606445	-68.388664	334.121307	1006.409912	-75.105896	258.876801	1079.753418	-92.559441	418.448395	935.258362	-93.171486	337.666473	851.902954	-66.419228	285.286896	785.620117	-73.551765	224.197983	721.775208	-86.689438	324.436157	754.340698	-106.295792	137.579865	636.183716	-109.229721	184.713135	625.186096	-184.347961	89.514961	633.388611	-166.035751	294.569977	456.858551	-136.451477	191.394348	499.740875	-74.300934	93.622009	907.046021	-469.301392	150.511765	838.440796	-465.967865	193.243851	872.490417	-463.741119	197.804382	769.844727	-444.429993	257.202576	662.752686	-427.379852	209.284348	562.091125	-460.955414	201.916229	476.263062	-451.709442	192.231033	392.049377	-436.621185	257.972046	474.599182	-426.019836	180.973206	264.940063	-417.613770	216.850342	296.366913	-331.543213	134.992493	246.043472	-377.958954	403.614563	171.694260	-373.477356	298.871429	165.178955	-443.413818	-224.915649	892.944702	-256.671814	-12.941379	84.309418	-458.077454	-22.546492	81.050117	-57.919674	
